<svg xmlns="http://www.w3.org/2000/svg" viewBox="0 0 1080 1080" width="1080" height="1080" preserveAspectRatio="xMidYMid meet" style="width: 100%; height: 100%;"><defs><clipPath id="__lottie_element_266"><rect width="1080" height="1080" x="0" y="0"></rect></clipPath><mask id="__lottie_element_267" mask-type="alpha"><g transform="matrix(1,0,0,1,540,540)" opacity="1" style="display: block;"><g opacity="1" transform="matrix(1,0,0,1,0,0)"><path fill="rgb(25,25,25)" fill-opacity="1" d=" M-118.625,-245.375 C-118.625,-245.375 -123,-244.625 -122.875,-240.625 C-122.75,-236.625 -118.375,-238.375 -114.875,-238.5 C-111.375,-238.625 -25.125,-244.125 22.625,-241.375 C70.375,-238.625 125,-237.5 213,-215 C301,-192.5 351.5,-166.5 406.5,-112.5 C433.5,-72.5 454.5,-17.5 368,58.5 C281.5,134.5 154.5,172 149,174.5 C143.5,177 -30,244 -191.5,241 C-353,238 -414,195.5 -428.5,126.5 C-430.09600830078125,113.73100280761719 -430.4079895019531,92.09700012207031 -424.18798828125,68.58200073242188 C-408.97601318359375,11.067999839782715 -364.65899658203125,-67.66799926757812 -277,-128 C-180.31300354003906,-194.54600524902344 -94.96499633789062,-209.26800537109375 -2.7219998836517334,-213.07200622558594 C22.857999801635742,-214.1269989013672 49.007999420166016,-215.03799438476562 76,-213.5 C124.25,-210.75 144.08700561523438,-206.99899291992188 167.0489959716797,-203.57899475097656 C217.9010009765625,-196.0050048828125 252.20199584960938,-188.76600646972656 275.5,-181 C297.25,-173.75 288.25,-186.5 288.25,-186.5 C288.25,-186.5 271.25,-191 271.25,-191 C271.25,-191 185.25,-213.75 132.5,-218.5 C79.75,-223.25 -61.25,-236.25 -185.5,-188.25 C-231.99099731445312,-170.2899932861328 -279.75201416015625,-143.70899963378906 -314.1260070800781,-113.71800231933594 C-371.6189880371094,-63.55699920654297 -402,-9.25 -402,-9.25 C-402,-9.25 -488.3479919433594,111.35700225830078 -406.5,191.5 C-339,256 -209,253 -191.5,253 C-150,253 -34,248 92.5,207.5 C219,167 323,119.5 389.5,55.5 C456,-8.5 462,-68.5 407,-131.5 C352,-194.5 221.5,-236 100,-245.5 C-21.5,-255 -118.625,-245.375 -118.625,-245.375z"></path></g><g opacity="1" transform="matrix(1,0,0,1,0,0)"><path fill="rgb(25,25,25)" fill-opacity="1" d=" M-114.25,-202.5"></path></g></g></mask></defs><g clip-path="url(#__lottie_element_266)"><g mask="url(#__lottie_element_267)" style="display: block;"><g transform="matrix(1.274399995803833,0,0,1.274399995803833,493.2179870605469,749.302978515625)" opacity="1"><g opacity="1" transform="matrix(1,0,0,1,0,0)"><path stroke-linecap="round" stroke-linejoin="miter" fill-opacity="0" stroke-miterlimit="4" stroke="rgb(25,25,25)" stroke-opacity="1" stroke-width="10" d="M0 0"></path></g></g></g></g></svg>