<svg xmlns="http://www.w3.org/2000/svg" viewBox="0 0 1080 1080" width="1080" height="1080" preserveAspectRatio="xMidYMid meet" style="width: 100%; height: 100%;"><defs><clipPath id="__lottie_element_200"><rect width="1080" height="1080" x="0" y="0"></rect></clipPath><mask id="__lottie_element_201" mask-type="alpha"><g transform="matrix(1,0,0,1,540,540)" opacity="1" style="display: block;"><g opacity="1" transform="matrix(1,0,0,1,0,0)"><path fill="rgb(155,72,25)" fill-opacity="1" d=" M-39,-14.5 C-87.25,-15.25 -187.5,-19.5 -323.25,-3 C-459,13.5 -488.5,41.75 -506.25,59.25 C-524,76.75 -519.75,98.5 -519.75,98.5 C-519.75,98.5 -519.75,103.3759994506836 -516,102.93800354003906 C-514.68798828125,102.5 -513.25,102.75 -514.75,97.25 C-517,76.25 -506.75,65.25 -483,47.75 C-391.5,-9.25 -149.25,-5.25 -31.75,-0.75 C85.75,3.75 354.75,27.125 364.125,27.875 C373.5,28.625 513.75,43.25 513.75,43.25 C513.75,43.25 525.625,45.875 526.5,38.75 C528,29.25 521.625,28.625 521.625,28.625 C521.625,28.625 503,24 369.5,11.5 C236,-1 9.25,-13.75 -39,-14.5z"></path></g></g></mask></defs><g clip-path="url(#__lottie_element_200)"><g mask="url(#__lottie_element_201)" style="display: block;"><g transform="matrix(1.511414647102356,0.1588560789823532,-0.1588560789823532,1.511414647102356,522.4769897460938,796.8140258789062)" opacity="1"><g opacity="1" transform="matrix(1,0,0,1,0,0)"><path stroke-linecap="round" stroke-linejoin="miter" fill-opacity="0" stroke-miterlimit="4" stroke="rgb(155,72,25)" stroke-opacity="1" stroke-width="10" d=" M-277.7820129394531,-128.79600524902344 C-201.71499633789062,-158.01300048828125 -33.327999114990234,-186.04200744628906 335.81298828125,-181.55499267578125"></path></g></g></g></g></svg>